<svg xmlns="http://www.w3.org/2000/svg" xmlns:xlink="http://www.w3.org/1999/xlink" width="67.7" height="58.49" viewBox="0 0 67.7 58.49">
  <defs>
    <clipPath id="clip-path">
      <rect id="Rectangle_59" data-name="Rectangle 59" width="67.7" height="58.49" fill="#00699d"/>
    </clipPath>
  </defs>
  <g id="Groupe_31" data-name="Groupe 31" clip-path="url(#clip-path)">
    <path id="Tracé_30" data-name="Tracé 30" d="M50.833,33.958H17.28V31.105H50.833A1.417,1.417,0,0,0,52.2,30.1L59.3,6.853H13V4H59.3a2.853,2.853,0,0,1,2.728,3.688l-7.1,23.242a4.258,4.258,0,0,1-4.093,3.029" transform="translate(5.546 1.706)" fill="#00699d"/>
    <path id="Tracé_31" data-name="Tracé 31" d="M58.49,45.651H27.8a4.255,4.255,0,0,1-4.1-3.05L12.083,3.869a1.42,1.42,0,0,0-1.367-1.016H0V0H10.717a4.255,4.255,0,0,1,4.1,3.05L26.435,41.782A1.42,1.42,0,0,0,27.8,42.8H58.49Z" fill="#00699d"/>
    <path id="Tracé_32" data-name="Tracé 32" d="M19.7,44.419A5.717,5.717,0,1,1,25.419,38.7,5.724,5.724,0,0,1,19.7,44.419m0-8.581A2.864,2.864,0,1,0,22.566,38.7,2.866,2.866,0,0,0,19.7,35.838" transform="translate(5.966 14.071)" fill="#00699d"/>
    <path id="Tracé_33" data-name="Tracé 33" d="M39.716,44.419A5.717,5.717,0,1,1,45.433,38.7a5.724,5.724,0,0,1-5.716,5.718m0-8.581A2.864,2.864,0,1,0,42.58,38.7a2.866,2.866,0,0,0-2.863-2.863" transform="translate(14.504 14.071)" fill="#00699d"/>
  </g>
</svg>
