<svg xmlns="http://www.w3.org/2000/svg" xmlns:xlink="http://www.w3.org/1999/xlink" width="39.499" height="24.529" viewBox="0 0 39.499 24.529">
  <defs>
    <linearGradient id="linear-gradient" x1="0.202" y1="0.546" x2="0.934" y2="-0.13" gradientUnits="objectBoundingBox">
      <stop offset="0" stop-color="#005ab9"/>
      <stop offset="1" stop-color="#1e3764"/>
    </linearGradient>
    <linearGradient id="linear-gradient-2" x1="0.061" y1="1.087" x2="0.837" y2="0.427" gradientUnits="objectBoundingBox">
      <stop offset="0" stop-color="#fba900"/>
      <stop offset="1" stop-color="#ffd800"/>
    </linearGradient>
  </defs>
  <g id="logo_7_" data-name="logo (7)" transform="translate(0)">
    <path id="Bancontact" d="M145.518,390V384.3h1.761c1.28,0,2.1.481,2.1,1.475a1.327,1.327,0,0,1-.628,1.182,1.413,1.413,0,0,1,.84,1.361c0,1.149-.84,1.687-2.144,1.687Zm1.133-3.334h.84a.637.637,0,0,0,.734-.717c0-.5-.4-.66-.937-.66h-.636Zm0,2.339h.7c.685,0,1.084-.171,1.084-.709s-.342-.75-.986-.75h-.8Zm5.14,1.092c-1.117,0-1.679-.546-1.679-1.28,0-.807.66-1.28,1.638-1.288a5.109,5.109,0,0,1,.725.065v-.2c0-.5-.285-.734-.831-.734a2.858,2.858,0,0,0-1.076.2l-.2-.88a4.039,4.039,0,0,1,1.41-.245,1.583,1.583,0,0,1,1.793,1.736v2.266A4.081,4.081,0,0,1,151.791,390.1Zm.685-.921v-.872a2.741,2.741,0,0,0-.579-.065c-.375,0-.668.147-.668.53,0,.342.245.522.677.522A1.275,1.275,0,0,0,152.475,389.179Zm1.884.823v-3.9a4.976,4.976,0,0,1,1.842-.359c1.19,0,1.875.587,1.875,1.671V390h-1.125v-2.51c0-.562-.261-.823-.758-.823a1.708,1.708,0,0,0-.717.147V390Zm7.648-4.018-.212.888a2.482,2.482,0,0,0-.921-.2c-.66,0-1.019.465-1.019,1.231,0,.839.375,1.271,1.076,1.271a2.307,2.307,0,0,0,.9-.212l.179.9a2.744,2.744,0,0,1-1.174.236,2.182,2.182,0,0,1-.065-4.361A3.142,3.142,0,0,1,162.007,385.984Zm2.43,4.116a2.186,2.186,0,1,1,2.03-2.184A1.98,1.98,0,0,1,164.437,390.1Zm0-.929c.579,0,.88-.481.88-1.255s-.3-1.247-.88-1.247-.888.481-.888,1.247S163.866,389.171,164.437,389.171Zm2.68.831v-3.9a4.976,4.976,0,0,1,1.842-.359c1.19,0,1.875.587,1.875,1.671V390h-1.125v-2.51c0-.562-.261-.823-.758-.823a1.709,1.709,0,0,0-.717.147V390Zm6.253.1c-.97,0-1.467-.53-1.467-1.606v-1.761h-.554v-.9h.554v-.9l1.125-.057v.962h.9v.9h-.9v1.744c0,.473.2.693.562.693a1.979,1.979,0,0,0,.432-.049l.057.9A3.1,3.1,0,0,1,173.371,390.1Zm2.839,0c-1.117,0-1.679-.546-1.679-1.28,0-.807.66-1.28,1.638-1.288a5.109,5.109,0,0,1,.725.065v-.2c0-.5-.285-.734-.831-.734a2.858,2.858,0,0,0-1.076.2l-.2-.88a4.039,4.039,0,0,1,1.41-.245,1.583,1.583,0,0,1,1.793,1.736v2.266A4.081,4.081,0,0,1,176.21,390.1Zm.685-.921v-.872a2.741,2.741,0,0,0-.579-.065c-.375,0-.668.147-.668.53,0,.342.244.522.676.522A1.275,1.275,0,0,0,176.895,389.179Zm4.941-3.2-.212.888a2.482,2.482,0,0,0-.921-.2c-.66,0-1.019.465-1.019,1.231,0,.839.375,1.272,1.076,1.272a2.308,2.308,0,0,0,.9-.212l.179.9a2.744,2.744,0,0,1-1.174.236,2.182,2.182,0,0,1-.065-4.361A3.141,3.141,0,0,1,181.835,385.984Zm2.473,4.116c-.97,0-1.467-.53-1.467-1.606v-1.761h-.554v-.9h.554v-.9l1.125-.057v.962h.9v.9h-.9v1.744c0,.473.2.693.562.693a1.978,1.978,0,0,0,.432-.049l.057.9A3.1,3.1,0,0,1,184.308,390.1Z" transform="translate(-145.518 -365.572)" fill="#1e3764"/>
    <path id="blue-symbol" d="M153.364,254.653c5.952,0,8.928-3.968,11.9-7.936h-19.75v7.936Z" transform="translate(-145.518 -238.781)" fill="url(#linear-gradient)"/>
    <path id="yellow-symbol" d="M409.273,145.517c-5.952,0-8.928,3.968-11.9,7.936h19.75v-7.936Z" transform="translate(-377.619 -145.517)" fill="url(#linear-gradient-2)"/>
  </g>
</svg>
