<?xml version="1.0" encoding="UTF-8"?>
<svg class="" viewBox="0 0 1920 559.7" xmlns="http://www.w3.org/2000/svg">
<g transform="translate(5589)" fill="#236190" data-name="Soustraction 1">
<path d="m-3669.5 558.86c-36.978-19.964-75.029-39.054-113.11-56.747-38.536-17.903-78.118-34.846-117.65-50.358-39.769-15.607-80.543-30.18-121.19-43.315-40.921-13.224-82.799-25.341-124.47-36.015-41.989-10.755-84.886-20.329-127.5-28.458-42.972-8.1971-86.8-15.143-130.27-20.645-43.855-5.5512-88.529-9.7819-132.78-12.575-44.664-2.8191-90.096-4.2486-135.03-4.2486-40.746 0-81.955 1.1745-122.48 3.4907-40.186 2.2971-80.775 5.7784-120.64 10.346-39.551 4.5321-79.457 10.256-118.61 17.012-38.855 6.705-78.015 14.608-116.39 23.489-38.101 8.8174-76.45 18.835-113.98 29.776-37.287 10.869-74.762 22.939-111.39 35.874-36.411 12.86-72.949 26.917-108.6 41.782-35.224 14.686-70.515 30.548-104.91 47.153v-514.92h1919v558.36z"/>
<path d="m-3670 558.02v-557.02h-1918v513.63c34.176-16.483 69.229-32.231 104.22-46.819 35.66-14.868 72.207-28.928 108.63-41.791 36.632-12.938 74.117-25.011 111.41-35.882 37.541-10.943 75.899-20.964 114.01-29.783 38.385-8.8828 77.554-16.788 116.42-23.494 39.161-6.7579 79.076-12.483 118.64-17.016 39.875-4.569 80.474-8.0509 120.67-10.349 40.537-2.3169 81.756-3.4917 122.51-3.4917 44.948 0 90.391 1.4298 135.07 4.2495 44.261 2.7938 88.945 7.0257 132.81 12.578 43.479 5.5031 87.318 12.45 130.3 20.65 42.623 8.131 85.53 17.708 127.53 28.465 41.683 10.676 83.571 22.796 124.5 36.023 40.655 13.138 81.438 27.715 121.22 43.325 39.539 15.516 79.13 32.463 117.68 50.37 37.838 17.579 75.645 36.537 112.4 56.362m1 1.6782-0.0014648-0.0026245c-37.203-20.105-75.498-39.327-113.82-57.13-38.527-17.899-78.1-34.838-117.62-50.346-39.762-15.604-80.526-30.173-121.16-43.304-40.912-13.221-82.781-25.335-124.44-36.006-41.979-10.752-84.866-20.324-127.47-28.451-42.959-8.1948-86.777-15.139-130.24-20.64-43.847-5.55-88.51-9.7798-132.75-12.572-44.655-2.8186-90.077-4.2476-135-4.2476-40.738 0-81.938 1.1743-122.45 3.49-40.173 2.2964-80.753 5.7764-120.61 10.344-39.541 4.5309-79.437 10.253-118.58 17.008-38.846 6.7036-77.997 14.605-116.36 23.483-38.092 8.8152-76.432 18.831-113.95 29.769-37.28 10.867-74.747 22.934-111.36 35.865-36.401 12.857-72.931 26.911-108.57 41.772-35.457 14.783-70.987 30.76-105.6 47.489v-516.22h1920v559.7z" fill="#707070"/>
</g>
</svg>