<svg xmlns="http://www.w3.org/2000/svg" xmlns:xlink="http://www.w3.org/1999/xlink" width="103.927" height="114.719" viewBox="0 0 103.927 114.719"><defs><clipPath id="a"><path d="M45.353,171.731c-1.287,7.481,7.726,9.917,9.217,3.779A42.739,42.739,0,0,1,102.116,146a43.482,43.482,0,0,1,14.855,5.149,1.131,1.131,0,0,0,1.372-1.767,42.59,42.59,0,0,0-26.248-12.9,41.958,41.958,0,0,0-4.525-.245,43.281,43.281,0,0,0-42.216,35.491" transform="translate(-45.227 -136.24)" fill="none"/></clipPath><linearGradient id="b" x1="-0.242" y1="1.227" x2="-0.236" y2="1.227" gradientUnits="objectBoundingBox"><stop offset="0" stop-color="#ad741b"/><stop offset="0.213" stop-color="#c5861f"/><stop offset="0.537" stop-color="#e49e25"/><stop offset="0.811" stop-color="#f8ad28"/><stop offset="1" stop-color="#ffb32a"/></linearGradient><clipPath id="c"><path d="M83.975,0a1.068,1.068,0,0,0-1.058.856,43.779,43.779,0,0,0,3.174,29.357,42.89,42.89,0,0,0,54.356,21.3c6.942-2.878,4.185-11.9-1.744-9.908C118.832,47,97.353,36.667,88.722,16.56a44.806,44.806,0,0,1-3.6-15.469A1.118,1.118,0,0,0,83.99,0Z" transform="translate(-81.701)" fill="none"/></clipPath><linearGradient id="d" x1="-0.496" y1="1.895" x2="-0.489" y2="1.895" gradientUnits="objectBoundingBox"><stop offset="0" stop-color="#004661"/><stop offset="0.199" stop-color="#005276"/><stop offset="0.506" stop-color="#006292"/><stop offset="0.684" stop-color="#00699d"/><stop offset="1" stop-color="#00699d"/></linearGradient><clipPath id="e"><path d="M12.972,28.84C26.5,44.528,26.779,68.6,12.733,85.287A43.939,43.939,0,0,1,.589,95.359a1.136,1.136,0,0,0,.763,2.111A42.726,42.726,0,0,0,26,81.673,44,44,0,0,0,21,22.9a6.512,6.512,0,0,0-4.363-1.836c-4,0-6.908,4.429-3.663,7.778" transform="translate(0 -21.062)" fill="none"/></clipPath><linearGradient id="f" x1="0.026" y1="1.37" x2="0.036" y2="1.37" gradientUnits="objectBoundingBox"><stop offset="0" stop-color="#aeb0b3"/><stop offset="0.43" stop-color="#9d9fa2"/><stop offset="1" stop-color="#818386"/></linearGradient><clipPath id="g"><rect width="103.927" height="114.719" fill="none"/></clipPath></defs><g transform="translate(19.357 59.015)"><g clip-path="url(#a)"><rect width="75.177" height="45.409" transform="translate(-1.161)" fill="url(#b)"/></g></g><g transform="translate(34.967)"><g clip-path="url(#c)"><rect width="67.572" height="60.756" transform="matrix(1, -0.014, 0.014, 1, -1.9, 0.012)" fill="url(#d)"/></g></g><g transform="translate(0 9.123)"><g clip-path="url(#e)"><rect width="41.278" height="77.254" transform="translate(-1.618 0.015) rotate(-0.814)" fill="url(#f)"/></g></g><g clip-path="url(#g)"><path d="M122.988,222.8a4.767,4.767,0,0,1-1.2,3.448,4.073,4.073,0,0,1-3.064,1.227,3.983,3.983,0,0,1-3.04-1.234,4.684,4.684,0,0,1-1.228-3.435V206.851h-4.341V223.2a8.5,8.5,0,0,0,8.612,8.768,8.48,8.48,0,0,0,6.121-2.447,8.676,8.676,0,0,0,2.485-6.333V206.851h-4.341Z" transform="translate(-62.985 -117.25)" fill="#62af31"/><path d="M174.457,208.63a7.436,7.436,0,0,0-2.745-1.507,13.286,13.286,0,0,0-2.71-.273H160.23v24.92h4.342v-9.389h4.89a7.115,7.115,0,0,0,5.728-2.531,7.947,7.947,0,0,0,1.9-5.143,8.19,8.19,0,0,0-.749-3.612,6.186,6.186,0,0,0-1.885-2.465m-1.709,5.979a3.742,3.742,0,0,1-.838,2.379,3.175,3.175,0,0,1-2.595,1.1h-4.744v-6.94H169.2a3.825,3.825,0,0,1,2.27.618,2.528,2.528,0,0,1,.939.987,4.475,4.475,0,0,1,.34,1.857" transform="translate(-91.653 -117.25)" fill="#62af31"/><path d="M222.029,211.147v-4.3H206.466v24.92h15.562v-4.3H210.808V221.26h9.578v-4.1h-9.578v-6.016Z" transform="translate(-118.101 -117.25)" fill="#62af31"/><path d="M167.614,29.078a9.9,9.9,0,0,1-7.541,11.738,9.784,9.784,0,0,1-11.6-7.632,9.9,9.9,0,0,1,7.541-11.738,9.784,9.784,0,0,1,11.6,7.632" transform="translate(-84.807 -12.033)" fill="#62af31"/></g></svg>